<?xml version="1.0" encoding="UTF-8"?>
<svg viewBox="0 0 40 40" fill="#000000" xmlns="http://www.w3.org/2000/svg">
	<path
		d="M5.59621 34.1317C1.10518 29.6407 1.10518 22.3593 5.59621 17.8683L6.23288 17.2316L6.42208 17.0603C7.40402 16.2592 8.85303 16.3162 9.76841 17.2316C10.6838 18.147 10.7408 19.596 9.93966 20.5779L9.76841 20.7671L9.13174 21.4038C6.59334 23.9422 6.59334 28.0578 9.13174 30.5962C11.6701 33.1346 15.7857 33.1346 18.3241 30.5962L20.8694 28.0509C23.4078 25.5125 23.4078 21.3969 20.8694 18.8585C19.8932 17.8823 19.8934 16.2993 20.8694 15.323C21.8457 14.3467 23.4287 14.3467 24.405 15.323C28.896 19.814 28.896 27.0954 24.405 31.5864L21.8597 34.1317C17.3686 38.6228 10.0872 38.6227 5.59621 34.1317ZM31.052 8.67588C28.5137 6.13749 24.398 6.1375 21.8597 8.67588L19.3144 11.2212C16.776 13.7596 16.776 17.8752 19.3144 20.4136C20.2906 21.3898 20.2904 22.9728 19.3144 23.9491C18.338 24.9254 16.7551 24.9254 15.7788 23.9491C11.2878 19.4581 11.2878 12.1767 15.7788 7.68566L18.3241 5.14035C22.8151 0.649355 30.0966 0.649321 34.5876 5.14035C39.0786 9.63135 39.0786 16.9128 34.5876 21.4038L33.9509 22.0405C32.9746 23.0165 31.3916 23.0167 30.4154 22.0405C29.4392 21.0643 29.4393 19.4813 30.4154 18.5049L31.052 17.8683C33.5904 15.3299 33.5904 11.2143 31.052 8.67588Z" />
</svg>