<?xml version="1.0" encoding="UTF-8"?>
<svg xmlns="http://www.w3.org/2000/svg" viewBox="0 0 40 40" fill="#000000">
  <path d="M19.94,1c11.09,0,20.01,7.23,20.01,16.22,0,4.38-2.16,8.23-5.54,11.26-5.48,5.42-14.93,10.91-15.93,10.5-1.63-.64,1.22-4.14.06-5.66-.18-.23-.82-.18-1.98-.35C6.93,31.68.05,25.33.05,17.16.05,8.17,8.91,1,19.94,1h0ZM8.57,22.58h3.38c.58,0,.93-.47.93-1.05,0-.41-.29-.93-1.05-.93h-2.74c-.23,0-.23-.23-.23-1.05v-5.89c0-.52-.35-1.05-.99-1.05-.58,0-.99.47-.99,1.05v7.12c0,1.58.76,1.81,1.69,1.81ZM16.21,21.77v-8.11c0-.52-.41-1.05-1.05-1.05-.52,0-.99.47-.99,1.05v8.11c0,.52.41.93,1.05.93.52,0,.99-.41.99-.93ZM25.78,20.66v-7.12c0-.52-.41-.93-1.05-.93-.47,0-.99.29-.99.93v5.13l-3.38-4.72c-.47-.82-1.05-1.34-1.75-1.34-.88,0-.93.7-.93,1.69v7.47c0,.52.41.93.99.93.52,0,.99-.35.99-.93v-5.31l3.38,4.72c.76.99.93,1.52,1.87,1.52.64,0,.88-.58.88-2.04h0ZM32.31,16.63h-2.98v-1.69c0-.18.06-.41.35-.41h2.62c.64,0,1.05-.35,1.05-.99,0-.76-.58-.99-1.11-.99h-3.38c-1.05,0-1.58.7-1.58,1.63v6.59c0,1.17.47,1.81,1.58,1.81h3.44c.76,0,1.05-.47,1.05-1.05,0-.76-.58-.99-1.05-.99h-2.57c-.23,0-.41-.18-.41-.35v-1.63h3.09c.76,0,.88-.58.88-.99,0-.58-.47-.93-.99-.93Z"/>
</svg>