<?xml version="1.0" encoding="UTF-8"?>
<svg viewBox="0 0 24 24" fill="#000" xmlns="http://www.w3.org/2000/svg">
	<path
		d="M3 14.9855C3 13.9898 3.80589 13.1826 4.8 13.1826C5.79411 13.1826 6.6 13.9898 6.6 14.9855C6.6 17.9726 9.01766 20.3942 12 20.3942C14.9823 20.3942 17.4 17.9726 17.4 14.9855C17.4 12.0916 15.131 9.72861 12.2777 9.58383L12 9.57678L11.8163 9.5671C10.9085 9.47492 10.2 8.70747 10.2 7.77388C10.2 6.77817 11.0059 5.97098 12 5.97098L12.4632 5.98242C17.2185 6.22388 21 10.1625 21 14.9855C21 19.9641 16.9706 24 12 24C7.02944 24 3 19.9641 3 14.9855Z"/>
	<path
		d="M10.375 2.15865C10.8237 1.89621 11.4602 1.96655 11.7969 2.31651C11.9287 2.45361 11.9999 2.62067 12 2.79204V12.3016C12 12.7392 11.5453 13.0947 10.9843 13.0948C10.7647 13.0948 10.5507 13.0387 10.375 12.936L3.27029 7.96956C2.97146 7.79446 2.91133 7.46391 3.13552 7.2306C3.17399 7.19059 3.219 7.15409 3.27029 7.12407L10.375 2.15865Z"/>
</svg>