<svg viewBox="0 0 80 48" xmlns="http://www.w3.org/2000/svg">
	<path fill="#FF0266" d="M79.5133 23.0891V44.0235C79.5133 45.9435 78.1629 47.6704 76.2632 47.9552C73.9005 48.3104 71.8482 46.4661 71.8482 44.1675V24.9952C71.8482 24.4917 72.1981 24.0523 72.6909 23.9488C74.6098 23.5467 76.3741 22.9163 77.9154 22.0907V22.0928C78.0573 22.0107 78.2141 21.9552 78.3805 21.9456C79.0322 21.9083 79.5517 22.4288 79.5144 23.0795L79.5133 23.0891ZM69.0088 25.5029V44.1675C69.0088 46.3595 67.14 48.1387 64.9149 47.9904C62.8765 47.8539 61.3437 46.0555 61.3437 44.0117V24.7605C61.3437 24.0715 61.9848 23.5744 62.6557 23.7269L62.6706 23.7301C64.4786 24.1397 66.2674 24.3712 68.0018 24.4427C68.5672 24.4661 69.0088 24.9365 69.0088 25.5029ZM71.8546 13.6629C71.9656 11.7717 73.5517 10.1856 75.444 10.0757C77.7757 9.9392 79.6402 11.8048 79.5069 14.1376C79.3981 16.0299 77.8098 17.6171 75.9186 17.7269C73.5848 17.8603 71.7192 15.9957 71.8546 13.6629ZM50.7133 9.96587C50.8221 8.0736 52.4093 6.48747 54.3016 6.3776C56.6344 6.24427 58.4989 8.1088 58.3634 10.4416C58.2536 12.3328 56.6674 13.9189 54.7762 14.0288C52.4445 14.1643 50.5778 12.2997 50.7133 9.96587ZM61.3512 16.5995C61.46 14.7072 63.0461 13.12 64.9394 13.0101C67.2722 12.8768 69.1368 14.7424 69.0024 17.0741C68.8936 18.9653 67.3064 20.5515 65.4141 20.6613C63.0824 20.7979 61.2178 18.9323 61.3512 16.5995ZM39.5688 10.4107V18.0907H44.8072C46.596 18.0907 47.9997 19.4955 47.9997 21.2843C47.9997 23.0731 46.596 24.4779 44.8072 24.4779H39.5688V44.1675C39.5688 46.2741 37.844 48 35.7373 48C33.6285 48 31.9037 46.2741 31.9037 44.1675V24.4779H28.6461C26.8584 24.4779 25.4525 23.0731 25.4525 21.2843C25.4525 19.4955 26.8584 18.0907 28.6461 18.0907H31.9037V11.1765C31.9037 4.66133 35.3544 0 42.8904 0H45.4461C47.2328 0 48.6386 1.40373 48.6386 3.19253C48.6386 4.98027 47.2328 6.38613 45.4461 6.38613H43.6573C41.2936 6.38613 39.5688 7.6 39.5688 10.4107ZM58.5053 22.4043V44.1675C58.5053 46.3648 56.629 48.1451 54.3986 47.9904C52.3666 47.8464 50.8402 46.0608 50.8402 44.0256V18.7829C50.8402 18.6144 50.9117 18.3157 51.1186 18.0683C51.4749 17.6437 52.1576 17.6235 52.5821 17.9787C52.7069 18.0843 52.8178 18.1707 52.8488 18.1973C53.0674 18.3819 53.2882 18.5653 53.5176 18.7445L53.5677 18.784C54.8626 19.7909 56.3218 20.7029 57.925 21.4869C58.276 21.6597 58.5053 22.0128 58.5053 22.4043ZM17.3149 36.7595L11.2029 40.2891C9.78851 41.1061 8.02104 40.0853 8.02104 38.4512V31.3931C8.02104 29.7611 9.78851 28.7392 11.2029 29.5563L17.3149 33.0848C18.7304 33.9019 18.7304 35.9435 17.3149 36.7595ZM12.6781 21.9435C2.95438 21.9435 0.571442 27.936 0.571442 34.8821C0.571442 41.8283 2.91384 47.9008 12.6781 47.9008C22.4808 47.9008 24.7826 41.8283 24.7826 34.9621C24.7826 27.936 22.4808 21.9435 12.6781 21.9435Z" />
</svg>
